REM MD5 42daee21cfdded9b075023d24cb14ba6
FILE "Official U.S. PlayStation Magazine Demo Disc 31 (USA).bin" BINARY
  TRACK 01 MODE2/2352
    INDEX 01 00:00:00
  TRACK 02 AUDIO
    INDEX 00 32:25:06
    INDEX 01 32:27:06
  TRACK 03 AUDIO
    INDEX 00 35:14:08
    INDEX 01 35:16:08
  TRACK 04 AUDIO
    INDEX 00 36:24:33
    INDEX 01 36:26:33
REM LEADOUT 36:32:29
